<svg width="642" height="97" viewBox="0 0 642 97" fill="none" xmlns="http://www.w3.org/2000/svg">
<path fill-rule="evenodd" clip-rule="evenodd" d="M510.798 0C507.758 0 505.458 0.663164 503.821 1.95048C502.223 3.2378 501.404 5.14924 501.404 7.64586C501.404 10.1425 502.223 11.9369 503.821 13.2633C505.419 14.5896 507.758 15.2918 510.798 15.2918C513.838 15.2918 516.138 14.6286 517.775 13.2633C519.373 11.9369 520.192 10.0645 520.192 7.64586C520.192 5.22726 519.373 3.2378 517.775 1.95048C516.177 0.663164 513.838 0 510.798 0ZM485.501 38.6585C484.526 35.7718 483.123 33.1581 481.369 30.8175C479.576 28.4769 477.315 26.6826 474.626 25.3172C471.897 23.9909 468.623 23.2887 464.803 23.2887C460.438 23.2887 456.579 24.2249 453.227 26.0194C449.874 27.8528 447.107 30.8176 444.924 34.9136C442.741 39.0096 441.143 44.51 440.169 51.3757H438.298V51.1805L439.506 24.966H423.72V53.0921C423.642 57.9293 423.174 62.1813 422.317 65.9652C421.459 69.7102 420.251 72.9089 418.692 75.5616C417.132 78.2142 415.261 80.2038 413.118 81.6082C410.974 83.0125 408.479 83.6757 405.634 83.6757C402.437 83.6757 399.904 82.9344 398.072 81.413C396.24 79.8917 394.915 77.9022 394.057 75.4446C393.2 72.987 392.693 70.2953 392.498 67.4086C392.303 64.5219 392.225 61.7132 392.225 59.0215V25.0051H377.647V61.4401C377.647 65.4581 377.881 69.2421 378.388 72.831C378.894 76.4199 379.674 79.6576 380.804 82.5443C381.935 85.4311 383.377 87.9277 385.17 89.9952C386.963 92.0627 389.146 93.6231 391.796 94.7544C394.447 95.8857 397.526 96.4318 401.112 96.4318C405.478 96.4318 409.259 95.5346 412.494 93.7012C415.69 91.8677 418.341 88.981 420.446 85.002C422.55 81.023 424.071 75.8347 425.045 69.3981H426.643L425.708 94.7153H441.221V68.1888C441.299 61.5962 442.079 55.9008 443.56 51.1026C445.041 46.3434 447.146 42.6375 449.913 40.0629C452.681 37.4882 456.072 36.1619 460.087 36.1619C463.4 36.1619 465.973 36.9811 467.766 38.5805C469.598 40.1799 470.923 42.2083 471.702 44.6269C472.521 47.0455 473.028 49.5422 473.223 52.1169C473.456 54.6915 473.573 57.071 473.573 59.2165V94.7153H488.151V57.3441C488.151 54.2234 487.957 51.0636 487.567 47.8258C487.177 44.627 486.475 41.5452 485.501 38.6585ZM503.587 25.0832H518.048V94.7545H503.587V25.0832ZM560.984 82.7784C558.419 82.775 556.243 82.0728 554.454 80.6329C552.661 79.1895 551.765 76.6148 551.765 72.8699V37.2542H570.24V25.0831H551.765V9.67431H542.916L541.981 17.5933C541.708 20.3629 540.928 22.4304 539.564 23.7567C538.239 25.0831 536.056 25.8243 533.016 25.9023H528.182L528.066 37.0201H537.576V73.5722C537.576 77.044 537.966 80.1648 538.707 82.9344C539.447 85.7041 540.656 88.0838 542.254 90.0342C543.852 91.9847 545.957 93.506 548.529 94.5983C551.102 95.6516 554.22 96.1977 557.884 96.1977C559.755 96.1977 561.704 96.0027 563.77 95.6516C565.836 95.3006 568.058 94.7154 570.474 93.8962V79.9697C569.032 81.0229 567.473 81.7642 565.797 82.1933C564.128 82.5816 562.498 82.7766 560.984 82.7784ZM627.539 76.0297C628.241 74.3913 628.669 72.6749 628.864 70.8804V70.9193L642 72.9479C641.571 76.3418 640.636 79.4625 639.271 82.3102C637.907 85.1579 635.958 87.6546 633.464 89.8001C630.969 91.9457 627.968 93.584 624.382 94.7543C620.796 95.9246 616.703 96.5098 612.064 96.5098C606.335 96.5098 601.384 95.6515 597.136 93.9741C592.887 92.2967 589.34 89.8782 586.495 86.7574C583.61 83.6366 581.466 79.8916 579.985 75.5615C578.504 71.2314 577.763 66.2773 577.763 61.011C577.763 55.7447 578.465 50.8295 579.907 46.2653C581.31 41.7402 583.415 37.7222 586.183 34.2893C588.95 30.8565 592.38 28.1648 596.473 26.2534C600.566 24.3419 605.321 23.3667 610.778 23.3667C615.767 23.3667 620.211 24.2249 624.109 25.9023C628.007 27.6187 631.242 30.0763 633.892 33.3531C636.543 36.5909 638.414 40.6088 639.583 45.329C640.714 50.0492 641.065 55.4326 640.636 61.5181L591.99 61.9862C592.185 69.281 593.861 74.9373 597.136 78.8383C600.644 83.0123 605.633 85.0799 612.142 85.0799C615.105 85.0799 617.56 84.6898 619.587 83.8706C621.575 83.0904 623.251 81.9981 624.538 80.5938C625.824 79.1894 626.837 77.6681 627.539 76.0297ZM610.778 35.3816C606.763 35.3816 603.333 36.3959 600.527 38.4634H600.566C597.759 40.5309 595.615 43.4175 594.134 47.1625C593.433 48.9179 592.926 50.8295 592.575 52.858L627.149 52.4288C626.954 49.8542 626.526 47.5136 625.785 45.4851C624.538 42.1303 622.628 39.6336 620.094 37.9172C617.521 36.2398 614.442 35.3816 610.778 35.3816ZM43.0074 37.7702V53.2767L21.0067 61.6265L43.0074 70.0093V85.549L0.0994009 69.6117H0V53.6744H0.0994009L43.0074 37.7702ZM291.51 85.5486V70.0421L313.477 61.6924L291.51 53.3428V37.8363L334.352 53.7735H334.451V69.7108H334.352L291.51 85.5817V85.5486ZM273.087 15.8355L247.873 96.7147H262.816L288.031 15.8355H273.087ZM120.308 52.7458C120.573 46.4173 118.32 40.2543 114.079 35.5825H114.112C109.838 31.1094 103.841 28.6907 97.6779 28.9558C91.0843 28.6576 84.6233 31.1095 79.8852 35.7482V30.6456H64.9419V87.2047H79.8852V62.1557C79.8852 49.1673 84.557 42.6731 93.9338 42.6731C97.1146 42.5406 100.163 43.8659 102.25 46.2847C104.437 49.0016 105.531 52.4475 105.365 55.9266V87.2047H120.308V52.7458ZM136.146 6.2935V87.1727H151.089V6.2935H136.146ZM218.317 87.1717H230.775L251.749 30.5131H235.779L223.983 64.5083L211.856 30.5131H200.193L188.066 64.4089L176.271 30.5131H160.3L181.274 87.1717H193.732L206.091 53.8724L218.317 87.1717Z" fill="#F48F56"/>
</svg>
